<svg xmlns:xlink="http://www.w3.org/1999/xlink" xmlns="http://www.w3.org/2000/svg" fill="none" viewBox="0 0 32 32" pointer-events="all" aria-hidden="true" class="etiIcon" role="presentation" style="height: 20px; width: 20px;" width="32"  height="32" ><path stroke="#000000" stroke-linecap="round" stroke-linejoin="round" stroke-width="1.5px" d="M10.025 25.4H5.733c-.515 0-.933-.398-.933-.889V10.29c0-.491.418-.889.933-.889h20.534c.515 0 .933.398.933.889v14.22c0 .491-.418.889-.933.889h-4.295m-11.947 0h11.947m-11.947 0V27m11.947-1.6V27M21 8.8v-2a2 2 0 0 0-2-2h-6a2 2 0 0 0-2 2v2" fill="none"></path></svg>