<svg xmlns:xlink="http://www.w3.org/1999/xlink" xmlns="http://www.w3.org/2000/svg" viewBox="0 0 91 68" class="etiPartnerLogo css-69r4o1" role="img" title="Jcb" width="91"  height="68" ><title id="provider-jcb" fill="#FFFFFF">JCB</title><path d="M28.07 0v56.71a11.34 11.34 0 0 1-9.82 11.18 12 12 0 0 1-1.61.1H0V44.13c.77.16 1.53.34 2.29.48a47 47 0 0 0 12 .81 17.9 17.9 0 0 0 6.87-1.64 7.62 7.62 0 0 0 4.49-7.21V23.18H16V36.3a5.35 5.35 0 0 1-5.18 5.53 19.6 19.6 0 0 1-8.49-1.51c-.64-.25-1.27-.55-1.91-.8a.54.54 0 0 1-.42-.61v-27.5A11.32 11.32 0 0 1 9.78.12 12 12 0 0 1 11.47 0zm3.41 68V41.88l.17.08A15 15 0 0 0 38 44.81a36 36 0 0 0 9.76.63 49.7 49.7 0 0 0 8.31-1.27c.11 0 .27-.18.27-.28v-4.41a.2.2 0 0 0 0-.09c-.72.32-1.44.64-2.17.94a20.4 20.4 0 0 1-7.38 1.55 10.24 10.24 0 0 1-5.07-1 6.59 6.59 0 0 1-3.48-4.36 9.45 9.45 0 0 1 .05-5.14 6.84 6.84 0 0 1 5.23-4.85 14.9 14.9 0 0 1 6.41 0 22.4 22.4 0 0 1 6.06 2l.36.17v-4.39c0-.28-.08-.4-.36-.46a47 47 0 0 0-12.21-1.3 25.6 25.6 0 0 0-8.95 1.66A13 13 0 0 0 31.74 26l-.25.18a3 3 0 0 1 0-.37V11.24A11.34 11.34 0 0 1 41 .17a13 13 0 0 1 2-.16h16.55v56.74A11.35 11.35 0 0 1 50 67.84a13 13 0 0 1-1.87.15H31.48zM91 0v56.68a11.29 11.29 0 0 1-9.55 11.16 12 12 0 0 1-1.88.15H63V44.88h17.9a7.76 7.76 0 0 0 5-1.62 5 5 0 0 0-.54-8.26 8.84 8.84 0 0 0-3.81-1.21h-.22l-.09-.08.47-.12a6.2 6.2 0 0 0 3.58-1.94 4.87 4.87 0 0 0-1.78-7.67 10 10 0 0 0-4.24-.81H63a2 2 0 0 1 0-.2c0-4-.06-8.06 0-12.08A11.17 11.17 0 0 1 71.29.43 13 13 0 0 1 74.4 0h16.22z" fill="#FFFFFF"></path><path d="M68.51 41.37v-6a.6.6 0 0 1 .18 0h6.58a3 3 0 0 1-.06 6h-4.66zm0-9.37v-5.49h6.07a2.74 2.74 0 0 1 2.63 3.82A2.43 2.43 0 0 1 75 32z" fill="#FFFFFF"></path></svg>