<svg xmlns:xlink="http://www.w3.org/1999/xlink" xmlns="http://www.w3.org/2000/svg" viewBox="0 0 64 64" pointer-events="all" aria-hidden="true" class="etiIcon" role="presentation" style="fill: var(--colors-signal-caution-dark); height: 1.125rem; width: 1.125rem;" width="64"  height="64" ><path d="M54.3 34.5c-.9 1.1-2.6 1.3-3.7.4-1.2-.8-5.9-3.7-8-5.5-.9-.8-1.7-1.8-2.3-2.9-.2-.3-.7-.2-.7.1-.1 3.1-.1 6.1.2 9.2v.1c3.3 8.8 12 21 12.9 22.8s1.1 2.8-1 4.2-4-1.4-4-1.4c-4.2-5.5-9.6-14.1-11.1-16.6-.1-.2-.4-.2-.5-.1l-.2.2c-.7 2.2-1.8 4.4-3.2 6.3-.1.2-.4.2-.6 0 0-.1-.1-.2-.1-.3V39.5c.1-1.3-.7-2.5-2-2.9-.6-.2-1-.8-1-1.5 0-1.6.1-3.1.2-4.7q.3-4.5 1.2-9c.1-.3-.3-.5-.6-.4-3.1 1.9-3.6 3.9-5.1 6.5-.4.8-.5 1.4-1.2 2.7s-2.5 1-3.1.7c-.5-.4-.7-.9-.7-1.5.1-.9.4-1.8.8-2.7.9-2.4 2-4.7 3.4-6.9 1.9-2.4 4.1-4.6 6.5-6.5.8-.7 1.6-1.2 2.6-1.5.8-.6 1.2-1.5 1.1-2.5-.1-.4-.2-.8-.4-1.1-.7-1-1-2.2-.9-3.4C32.8 2.2 35 0 37.6 0h.2c2.7.2 4.7 2.7 4.5 5.4-.1 1.9-1.2 3.5-2.8 4.4-.5.3-.8.5-.8 1-.1.4.1.9.5 1.1 1 .7 1.8 1.8 2 3 .9 3.4 3.3 9.2 5.1 10.8 1.7 1.6 5.9 5 7.1 5.8 1.2.9 1.9 1.7.9 3m-26.8 3.7h-3.2v-5.9c0-.3-.3-.5-.6-.5-.1 0-.2 0-.2.1-.3.3-.7.4-1.1.5-.2 0-.3.3-.3.5v5.3h-4.5v-7.8h.7c.1 0 .2-.1.3-.2-.1-.5-.1-1.1 0-1.6.1-.4-.4-.4-.4-.4h-1.7c-.6 0-1.1.5-1.1 1.1v8.9h-3.2c-1.3 0-2.4 1.1-2.4 2.4v18.7c0 1.2 1 2.3 2.2 2.4-.1.7.2 1.4.8 1.8 1 .8 2.4.6 3.2-.4.3-.4.5-.9.5-1.4h6.7c0 1.3 1.1 2.3 2.4 2.2.5 0 .9-.2 1.3-.4.6-.4.9-1.1.8-1.8 1.2-.1 2.2-1.1 2.2-2.4V40.7c0-1.4-1.1-2.4-2.4-2.5" fill="#803D00"></path></svg>